IKResults
version=1
nRows=17
nColumns=40
inDegrees=yes

Units are S.I. units (second, meters, Newtons, ...)
If the header above contains a line with 'inDegrees', this indicates whether rotational values are in degrees (yes) or radians (no).

endheader
time	pelvis_tilt	pelvis_list	pelvis_rotation	pelvis_tx	pelvis_ty	pelvis_tz	hip_flexion_r	hip_adduction_r	hip_rotation_r	knee_angle_r	knee_angle_r_beta	ankle_angle_r	subtalar_angle_r	mtp_angle_r	hip_flexion_l	hip_adduction_l	hip_rotation_l	knee_angle_l	knee_angle_l_beta	ankle_angle_l	subtalar_angle_l	mtp_angle_l	lumbar_extension	lumbar_bending	lumbar_rotation	arm_flex_r	arm_add_r	arm_rot_r	elbow_flex_r	pro_sup_r	wrist_flex_r	wrist_dev_r	arm_flex_l	arm_add_l	arm_rot_l	elbow_flex_l	pro_sup_l	wrist_flex_l	wrist_dev_l
      7.75000000	     20.57807408	      8.17942546	   -173.08629744	      0.31034123	      0.72879198	     -0.93720504	     38.79183893	    -36.48921910	    -28.59350837	     25.29261152	      0.44143935	    -13.15528597	      0.00000000	      0.00000000	     56.69592049	    -39.74929391	     -4.54159186	     23.71556526	      0.41391470	    -16.97986803	      0.00000000	      0.00000000	    -21.73381382	      4.88370064	     -0.63405910	     39.16602257	    -17.99629394	     83.95035825	     20.54801182	     77.00436856	      0.00000000	      0.00000000	     39.86088818	    -14.99580699	     74.88136905	     14.21189874	     72.33106172	      0.00000000	      0.00000000
      7.75500000	     20.56915683	      8.09345466	   -173.13928704	      0.30928576	      0.72936679	     -0.93744057	     38.70551572	    -36.45114643	    -28.52690529	     25.21386234	      0.44006491	    -13.00835893	      0.00000000	      0.00000000	     56.41211817	    -39.76750747	     -4.86864580	     23.62202871	      0.41228218	    -17.04066484	      0.00000000	      0.00000000	    -21.40058531	      4.73773291	     -0.68499317	     38.99483568	    -17.94089200	     84.17446877	     20.53305877	     77.94325642	      0.00000000	      0.00000000	     39.66970017	    -15.29306856	     75.59325076	     14.54901221	     72.72936937	      0.00000000	      0.00000000
      7.76000000	     20.35180555	      8.29220388	   -172.97390527	      0.30820219	      0.73042867	     -0.93717434	     37.94691294	    -36.18023933	    -29.03407887	     24.75989107	      0.43214162	    -12.99415498	      0.00000000	      0.00000000	     56.14825759	    -39.76200955	     -4.59714277	     23.33538879	      0.40727937	    -17.05943267	      0.00000000	      0.00000000	    -21.27745180	      5.00075117	     -0.69623263	     38.52726090	    -17.99559637	     83.23931668	     20.48753816	     77.29055458	      0.00000000	      0.00000000	     39.39716279	    -14.88256118	     75.30641468	     13.94841983	     71.86878013	      0.00000000	      0.00000000
      7.76500000	     20.38940967	      8.15119549	   -173.03315360	      0.30720930	      0.73095796	     -0.93741495	     37.95181756	    -36.21893036	    -28.92539641	     24.70165095	      0.43112514	    -13.06023984	      0.00000000	      0.00000000	     55.82905614	    -39.71362435	     -4.93462491	     23.18120303	      0.40458832	    -17.12848303	      0.00000000	      0.00000000	    -20.90593057	      4.79285627	     -0.78336373	     38.43735237	    -17.97280898	     83.67123324	     20.56127465	     78.99779462	      0.00000000	      0.00000000	     39.25826071	    -15.34720519	     75.93128974	     14.58802619	     73.02308052	      0.00000000	      0.00000000
      7.77000000	     20.27043150	      8.30018666	   -172.81298885	      0.30614850	      0.73169139	     -0.93713155	     37.38364023	    -36.11266665	    -29.44116251	     24.43967772	      0.42655284	    -13.05821669	      0.00000000	      0.00000000	     55.70195134	    -39.61405081	     -4.63227798	     22.96262727	      0.40077345	    -17.18766717	      0.00000000	      0.00000000	    -20.64080033	      5.01036616	     -0.94929995	     38.08108101	    -17.96927907	     83.26847451	     20.53738580	     78.71910408	      0.00000000	      0.00000000	     38.93809210	    -15.22938189	     75.56025354	     14.44990780	     72.73585649	      0.00000000	      0.00000000
      7.77500000	     19.88115644	      8.29402266	   -172.73302333	      0.30475582	      0.73296470	     -0.93706840	     36.63109617	    -35.99496455	    -29.80864112	     24.13940578	      0.42131211	    -13.13151605	      0.00000000	      0.00000000	     55.06188146	    -39.65035597	     -4.84354705	     22.77409338	      0.39748291	    -17.17773073	      0.00000000	      0.00000000	    -20.72371879	      5.03594563	     -0.97465382	     37.92340859	    -18.02956378	     83.40384863	     20.64739851	     78.94316383	      0.00000000	      0.00000000	     38.77726568	    -15.29505176	     75.73536400	     14.56180778	     72.82449228	      0.00000000	      0.00000000
      7.78000000	     19.81273354	      8.17543697	   -172.81090901	      0.30359564	      0.73362764	     -0.93731977	     36.48257944	    -35.96139520	    -29.73268592	     24.02084415	      0.41924282	    -13.03336230	      0.00000000	      0.00000000	     54.60394643	    -39.65466145	     -5.15331995	     22.59554623	      0.39436668	    -17.11569790	      0.00000000	      0.00000000	    -20.43802789	      4.84524360	     -0.97854814	     37.65901702	    -17.97804250	     83.36088253	     20.60608411	     79.61757530	      0.00000000	      0.00000000	     38.55649214	    -15.41936790	     75.84420187	     14.68527035	     73.51088986	      0.00000000	      0.00000000
      7.78500000	     19.65751377	      8.08172889	   -172.85245847	      0.30243598	      0.73445872	     -0.93744229	     36.15850446	    -35.88517687	    -29.72906167	     23.78615245	      0.41514668	    -13.03947844	      0.00000000	      0.00000000	     54.09622731	    -39.65831982	     -5.42600410	     22.41788625	      0.39126593	    -17.07245511	      0.00000000	      0.00000000	    -20.25481402	      4.71470187	     -0.97277751	     37.35672430	    -17.97873414	     83.08866396	     20.62407290	     79.86466489	      0.00000000	      0.00000000	     38.35748080	    -15.43658767	     75.90959135	     14.63908961	     74.47734928	      0.00000000	      0.00000000
      7.79000000	     19.31335372	      8.13632956	   -172.67420765	      0.30110217	      0.73554293	     -0.93723763	     35.38327357	    -35.79247723	    -30.24301244	     23.51020682	      0.41033052	    -13.10539696	      0.00000000	      0.00000000	     53.61604582	    -39.61904299	     -5.40928695	     22.22256417	      0.38785691	    -17.07304032	      0.00000000	      0.00000000	    -20.23637561	      4.84176258	     -1.10445656	     37.10505593	    -18.01172866	     83.00959590	     20.69969112	     79.66636691	      0.00000000	      0.00000000	     38.13246581	    -15.39791966	     75.78215195	     14.60223752	     74.28625459	      0.00000000	      0.00000000
      7.79500000	     19.11280890	      8.04383625	   -172.70375536	      0.29984636	      0.73639773	     -0.93734401	     35.00271012	    -35.73673427	    -30.28665620	     23.31304376	      0.40688937	    -13.04745199	      0.00000000	      0.00000000	     53.06502009	    -39.64033493	     -5.78407532	     22.04884361	      0.38482492	    -16.97750783	      0.00000000	      0.00000000	    -20.08210802	      4.73050049	     -1.16407396	     36.84815670	    -17.95453986	     83.01490483	     20.69573183	     79.65621279	      0.00000000	      0.00000000	     37.86763921	    -15.49821231	     75.84322240	     14.65294055	     74.06240481	      0.00000000	      0.00000000
      7.80000000	     18.89548277	      8.04572973	   -172.65444805	      0.29867651	      0.73726462	     -0.93729949	     34.51204666	    -35.62891815	    -30.53773085	     23.08968870	      0.40299109	    -13.06154908	      0.00000000	      0.00000000	     52.61271347	    -39.62716971	     -5.78463911	     21.85854764	      0.38150363	    -16.94895068	      0.00000000	      0.00000000	    -19.94111211	      4.75505934	     -1.24547923	     36.64578734	    -17.95930543	     83.02620954	     20.72460474	     79.83083720	      0.00000000	      0.00000000	     37.65307543	    -15.56947521	     75.98891692	     14.72002044	     74.41013209	      0.00000000	      0.00000000
      7.80500000	     18.74814279	      8.01797705	   -172.62093776	      0.29746234	      0.73792652	     -0.93731867	     34.15610503	    -35.56553010	    -30.68051112	     22.92730618	      0.40015698	    -13.05247734	      0.00000000	      0.00000000	     52.22005362	    -39.61234619	     -5.91164165	     21.69624414	      0.37867090	    -16.88406332	      0.00000000	      0.00000000	    -19.69964446	      4.73351732	     -1.34339966	     36.37000700	    -17.93659985	     82.92297051	     20.75574658	     80.03772571	      0.00000000	      0.00000000	     37.39864251	    -15.61695037	     76.02750673	     14.71116318	     74.70104297	      0.00000000	      0.00000000
      7.81000000	     18.39998741	      7.99070534	   -172.56913014	      0.29613298	      0.73901432	     -0.93724594	     33.48933594	    -35.44141988	    -30.92514440	     22.62813083	      0.39493539	    -13.02831169	      0.00000000	      0.00000000	     51.58220607	    -39.63631034	     -6.16134052	     21.48102207	      0.37491456	    -16.87831491	      0.00000000	      0.00000000	    -19.68249750	      4.74426076	     -1.46105691	     36.09260765	    -17.89778153	     82.69642639	     20.75585858	     79.83132093	      0.00000000	      0.00000000	     37.15596182	    -15.69829797	     76.21119666	     14.75577480	     74.48163672	      0.00000000	      0.00000000
      7.81500000	     18.14378055	      8.06892868	   -172.47031920	      0.29494679	      0.73985316	     -0.93709465	     32.89021534	    -35.28527440	    -31.29540862	     22.38239641	      0.39064651	    -13.02875573	      0.00000000	      0.00000000	     51.19567729	    -39.65847693	     -6.12025658	     21.30994101	      0.37192863	    -16.83211130	      0.00000000	      0.00000000	    -19.54723605	      4.87837863	     -1.54147855	     35.83209796	    -17.93730229	     82.45375615	     20.80596840	     80.15479771	      0.00000000	      0.00000000	     36.95262678	    -15.71132135	     76.48374438	     14.76626571	     74.60045076	      0.00000000	      0.00000000
      7.82000000	     18.07438573	      8.04579946	   -172.49458969	      0.29383801	      0.74041347	     -0.93713396	     32.65136378	    -35.17711901	    -31.30993625	     22.18725157	      0.38724059	    -13.01485122	      0.00000000	      0.00000000	     50.87225382	    -39.67352616	     -6.29586409	     21.15213475	      0.36917440	    -16.77736414	      0.00000000	      0.00000000	    -19.20797850	      4.84484492	     -1.61656982	     35.57937374	    -17.91204856	     82.39661486	     20.82311435	     80.58294481	      0.00000000	      0.00000000	     36.68901017	    -15.69450954	     76.40290115	     14.69044250	     75.18748432	      0.00000000	      0.00000000
      7.82500000	     17.78980590	      8.21434756	   -172.28551155	      0.29258486	      0.74123836	     -0.93678437	     31.89342240	    -34.96397847	    -31.85701868	     21.87524627	      0.38179507	    -13.01151920	      0.00000000	      0.00000000	     50.60234934	    -39.67912455	     -6.05544582	     20.98906241	      0.36632825	    -16.74226662	      0.00000000	      0.00000000	    -19.06583039	      5.11010031	     -1.81415884	     35.22664319	    -17.90774498	     81.77058830	     20.82264987	     81.02463681	      0.00000000	      0.00000000	     36.44515594	    -15.78523802	     76.75214156	     14.76608534	     75.52091874	      0.00000000	      0.00000000
      7.83000000	     17.77971164	      8.56509657	   -172.07312547	      0.29157433	      0.74141363	     -0.93636374	     31.54393103	    -34.76166793	    -32.57972880	     21.91408416	      0.38247292	    -13.00454823	      0.00000000	      0.00000000	     50.93665529	    -39.75319006	     -5.46104413	     21.03174490	      0.36707320	    -16.68625922	      0.00000000	      0.00000000	    -18.56669554	      5.57596882	     -1.98783542	     34.70702850	    -17.91215136	     80.81492318	     20.72636228	     80.05738527	      0.00000000	      0.00000000	     35.93980432	    -15.57010379	     76.00824020	     14.54766284	     74.65620713	      0.00000000	      0.00000000
